<?xml version="1.0" encoding="UTF-8"?>
<svg width="19px" height="18px" viewBox="0 0 19 18" version="1.1" xmlns="http://www.w3.org/2000/svg" xmlns:xlink="http://www.w3.org/1999/xlink">
    <!-- Generator: Sketch 55.2 (78181) - https://sketchapp.com -->
    <title>2</title>
    <desc>Created with Sketch.</desc>
    <g id="Page-1" stroke="none" stroke-width="1" fill="none" fill-rule="evenodd">
        <g id="Artboard" transform="translate(-383.000000, -444.000000)" fill="#000000">
            <g id="2" transform="translate(385.000000, 444.000000)">
                <g id="Group" transform="translate(2.207792, 0.000000)">
                    <path d="M0.895999945,0 L13.8962078,0 C14.391055,6.77100799e-16 14.7922078,0.401152839 14.7922078,0.895999945 L14.7922078,13.7874416 C14.7922078,14.2822887 14.391055,14.6834416 13.8962078,14.6834416 L0.895999945,14.6834416 C0.401152839,14.6834416 7.17581727e-16,14.2822887 0,13.7874416 L0,0.895999945 C-1.71623595e-16,0.401152839 0.401152839,-1.31142666e-16 0.895999945,0 Z M2.10384413,1.64366883 C1.85642058,1.64366883 1.65584416,1.84424525 1.65584416,2.0916688 L1.65584416,12.5917728 C1.65584416,12.8391963 1.85642058,13.0397727 2.10384413,13.0397727 L12.6883637,13.0397727 C12.9357872,13.0397727 13.1363636,12.8391963 13.1363636,12.5917728 L13.1363636,2.0916688 C13.1363636,1.84424525 12.9357872,1.64366883 12.6883637,1.64366883 L2.10384413,1.64366883 Z" id="Combined-Shape"></path>
                </g>
                <g id="Group-Copy" transform="translate(0.000000, 7.560877)" stroke="#FFFFFF" stroke-width="1.11999993">
                    <path d="M0.895999945,-0.559999965 L9.59101304,-0.559999965 C10.3951396,-0.559999965 11.047013,0.0918733986 11.047013,0.895999945 L11.047013,8.41812343 C11.047013,9.22224998 10.3951396,9.87412334 9.59101304,9.87412334 L0.895999945,9.87412334 C0.0918733986,9.87412334 -0.559999965,9.22224998 -0.559999965,8.41812343 L-0.559999965,0.895999945 C-0.559999965,0.0918733986 0.0918733986,-0.559999965 0.895999945,-0.559999965 Z M2.21584412,2.2036688 L2.21584412,7.11045458 L8.27116887,7.11045458 L8.27116887,2.2036688 L2.21584412,2.2036688 Z" id="Combined-Shape"></path>
                </g>
            </g>
        </g>
    </g>
</svg>