<?xml version="1.0" encoding="UTF-8"?>
<svg width="19px" height="18px" viewBox="0 0 19 18" version="1.1" xmlns="http://www.w3.org/2000/svg" xmlns:xlink="http://www.w3.org/1999/xlink">
    <!-- Generator: Sketch 55.2 (78181) - https://sketchapp.com -->
    <title>4</title>
    <desc>Created with Sketch.</desc>
    <g id="Page-1" stroke="none" stroke-width="1" fill="none" fill-rule="evenodd">
        <g id="Artboard" transform="translate(-453.000000, -443.000000)" fill="#000000">
            <g id="4" transform="translate(461.500000, 452.500000) rotate(-180.000000) translate(-461.500000, -452.500000) translate(453.000000, 444.000000)">
                <path d="M3.08755839,0 L15.9790001,0 C16.4738472,7.88123101e-16 16.875,0.401152839 16.875,0.895999945 L16.875,13.7874416 C16.875,14.2822887 16.4738472,14.6834416 15.9790001,14.6834416 L3.08755839,14.6834416 C2.59271128,14.6834416 2.19155844,14.2822887 2.19155844,13.7874416 L2.19155844,0.895999945 C2.19155844,0.401152839 2.59271128,-2.01203639e-17 3.08755839,0 Z M4.28322725,1.64366883 C4.03580369,1.64366883 3.83522727,1.84424525 3.83522727,2.0916688 L3.83522727,12.5917728 C3.83522727,12.8391963 4.03580369,13.0397727 4.28322725,13.0397727 L14.7833312,13.0397727 C15.0307547,13.0397727 15.2313312,12.8391963 15.2313312,12.5917728 L15.2313312,2.0916688 C15.2313312,1.84424525 15.0307547,1.64366883 14.7833312,1.64366883 L4.28322725,1.64366883 Z" id="Combined-Shape"></path>
                <path d="M0.895999945,7.00087666 L9.51390265,7.00087666 C10.3180292,7.00087666 10.9699026,7.65275002 10.9699026,8.45687657 L10.9699026,15.9790001 C10.9699026,16.7831266 10.3180292,17.435 9.51390265,17.435 L0.895999945,17.435 C0.0918733986,17.435 -0.559999965,16.7831266 -0.559999965,15.9790001 L-0.559999965,8.45687657 C-0.559999965,7.65275002 0.0918733986,7.00087666 0.895999945,7.00087666 Z M2.2036688,9.76454542 L2.2036688,14.6713312 L8.2062338,14.6713312 L8.2062338,9.76454542 L2.2036688,9.76454542 Z" id="Combined-Shape" stroke="#FFFFFF" stroke-width="1.11999993"></path>
            </g>
        </g>
    </g>
</svg>