<?xml version="1.0" encoding="UTF-8"?>
<svg width="17px" height="17px" viewBox="0 0 17 17" version="1.1" xmlns="http://www.w3.org/2000/svg" xmlns:xlink="http://www.w3.org/1999/xlink">
    <!-- Generator: Sketch 55.2 (78181) - https://sketchapp.com -->
    <title>3</title>
    <desc>Created with Sketch.</desc>
    <g id="Page-1" stroke="none" stroke-width="1" fill="none" fill-rule="evenodd">
        <g id="Artboard" transform="translate(-419.000000, -444.000000)" fill="#000000">
            <g id="3" transform="translate(419.000000, 444.000000)">
                <path d="M0.895999945,0 L16.1040001,0 C16.5988472,2.01203639e-17 17,0.401152839 17,0.895999945 L17,16.1040001 C17,16.5988472 16.5988472,17 16.1040001,17 L0.895999945,17 C0.401152839,17 -1.61443313e-16,16.5988472 0,16.1040001 L0,0.895999945 C5.04210101e-17,0.401152839 0.401152839,-1.31142666e-16 0.895999945,0 Z M2.10384413,1.65584416 C1.85642058,1.65584416 1.65584416,1.85642058 1.65584416,2.10384413 L1.65584416,14.8961559 C1.65584416,15.1435794 1.85642058,15.3441558 2.10384413,15.3441558 L7.27927275,15.3441558 C7.52669631,15.3441558 7.72727273,15.1435794 7.72727273,14.8961559 L7.72727273,2.10384413 C7.72727273,1.85642058 7.52669631,1.65584416 7.27927275,1.65584416 L2.10384413,1.65584416 Z M9.72072725,1.65584416 C9.47330369,1.65584416 9.27272727,1.85642058 9.27272727,2.10384413 L9.27272727,14.8961559 C9.27272727,15.1435794 9.47330369,15.3441558 9.72072725,15.3441558 L14.8961559,15.3441558 C15.1435794,15.3441558 15.3441558,15.1435794 15.3441558,14.8961559 L15.3441558,2.10384413 C15.3441558,1.85642058 15.1435794,1.65584416 14.8961559,1.65584416 L9.72072725,1.65584416 Z" id="Combined-Shape"></path>
            </g>
        </g>
    </g>
</svg>